<svg width="405" height="83" viewBox="0 0 405 83" fill="none" xmlns="http://www.w3.org/2000/svg">
<path d="M0 81.4545V0H17.2216V33.608H52.1818V0H69.3636V81.4545H52.1818V47.8068H17.2216V81.4545H0Z" fill="#0059A7"/>
<path d="M111.085 82.6477C104.801 82.6477 99.392 81.375 94.858 78.8295C90.3504 76.2576 86.8769 72.625 84.4375 67.9318C81.9981 63.2121 80.7784 57.6307 80.7784 51.1875C80.7784 44.9034 81.9981 39.3883 84.4375 34.642C86.8769 29.8958 90.3106 26.197 94.7386 23.5455C99.1932 20.8939 104.417 19.5682 110.409 19.5682C114.439 19.5682 118.191 20.2178 121.665 21.517C125.165 22.7898 128.214 24.7121 130.812 27.2841C133.438 29.8561 135.479 33.0909 136.938 36.9886C138.396 40.8598 139.125 45.3939 139.125 50.5909V55.2443H87.5398V44.7443H123.176C123.176 42.3049 122.646 40.1439 121.585 38.2614C120.525 36.3788 119.053 34.9072 117.17 33.8466C115.314 32.7595 113.153 32.2159 110.688 32.2159C108.116 32.2159 105.835 32.8125 103.847 34.0057C101.884 35.1723 100.347 36.75 99.233 38.7386C98.1193 40.7008 97.5492 42.8883 97.5227 45.3011V55.2841C97.5227 58.3068 98.0796 60.9186 99.1932 63.1193C100.333 65.3201 101.938 67.0171 104.006 68.2102C106.074 69.4034 108.527 70 111.364 70C113.246 70 114.97 69.7348 116.534 69.2045C118.098 68.6742 119.438 67.8788 120.551 66.8182C121.665 65.7576 122.513 64.4583 123.097 62.9205L138.767 63.9545C137.972 67.7197 136.341 71.0076 133.875 73.8182C131.436 76.6023 128.28 78.7765 124.409 80.3409C120.564 81.8788 116.123 82.6477 111.085 82.6477Z" fill="#0059A7"/>
<path d="M167.602 82.608C163.705 82.608 160.231 81.9318 157.182 80.5795C154.133 79.2008 151.72 77.1724 149.943 74.4943C148.193 71.7898 147.318 68.4223 147.318 64.392C147.318 60.9981 147.941 58.1477 149.188 55.8409C150.434 53.5341 152.131 51.678 154.278 50.2727C156.426 48.8674 158.866 47.8068 161.597 47.0909C164.354 46.375 167.244 45.8712 170.267 45.5795C173.82 45.2083 176.684 44.8636 178.858 44.5455C181.032 44.2008 182.61 43.697 183.591 43.0341C184.572 42.3712 185.062 41.3902 185.062 40.0909V39.8523C185.062 37.3333 184.267 35.3845 182.676 34.0057C181.112 32.6269 178.884 31.9375 175.994 31.9375C172.945 31.9375 170.519 32.6136 168.716 33.9659C166.913 35.2917 165.72 36.9621 165.136 38.9773L149.466 37.7045C150.261 33.9924 151.826 30.7841 154.159 28.0795C156.492 25.3485 159.502 23.2538 163.188 21.7955C166.9 20.3106 171.195 19.5682 176.074 19.5682C179.468 19.5682 182.716 19.9659 185.818 20.7614C188.947 21.5568 191.718 22.7898 194.131 24.4602C196.57 26.1307 198.492 28.2784 199.898 30.9034C201.303 33.5019 202.006 36.6174 202.006 40.25V81.4545H185.938V72.983H185.46C184.479 74.892 183.167 76.5758 181.523 78.0341C179.879 79.4659 177.903 80.5928 175.597 81.4148C173.29 82.2102 170.625 82.608 167.602 82.608ZM172.455 70.9148C174.947 70.9148 177.148 70.4243 179.057 69.4432C180.966 68.4356 182.464 67.0833 183.551 65.3864C184.638 63.6894 185.182 61.767 185.182 59.6193V53.1364C184.652 53.4811 183.922 53.7992 182.994 54.0909C182.093 54.3561 181.072 54.608 179.932 54.8466C178.792 55.0587 177.652 55.2576 176.511 55.4432C175.371 55.6023 174.337 55.7481 173.409 55.8807C171.42 56.1723 169.684 56.6364 168.199 57.2727C166.714 57.9091 165.561 58.7708 164.739 59.858C163.917 60.9186 163.506 62.2443 163.506 63.8352C163.506 66.1421 164.341 67.9053 166.011 69.125C167.708 70.3182 169.856 70.9148 172.455 70.9148Z" fill="#0059A7"/>
<path d="M232.094 0V81.4545H215.151V0H232.094Z" fill="#0059A7"/>
<path d="M246 0H267.239L289.67 54.7273H290.625L313.057 0H334.295V81.4545H317.591V28.4375H316.915L295.835 81.0568H284.46L263.381 28.2386H262.705V81.4545H246V0Z" fill="#1990FF"/>
<path d="M376.007 82.6477C369.723 82.6477 364.314 81.375 359.78 78.8295C355.272 76.2576 351.799 72.625 349.359 67.9318C346.92 63.2121 345.7 57.6307 345.7 51.1875C345.7 44.9034 346.92 39.3883 349.359 34.642C351.799 29.8958 355.232 26.197 359.661 23.5455C364.115 20.8939 369.339 19.5682 375.331 19.5682C379.361 19.5682 383.113 20.2178 386.587 21.517C390.087 22.7898 393.136 24.7121 395.734 27.2841C398.359 29.8561 400.401 33.0909 401.859 36.9886C403.318 40.8598 404.047 45.3939 404.047 50.5909V55.2443H352.462V44.7443H388.098C388.098 42.3049 387.568 40.1439 386.507 38.2614C385.447 36.3788 383.975 34.9072 382.092 33.8466C380.236 32.7595 378.075 32.2159 375.609 32.2159C373.037 32.2159 370.757 32.8125 368.768 34.0057C366.806 35.1723 365.268 36.75 364.155 38.7386C363.041 40.7008 362.471 42.8883 362.445 45.3011V55.2841C362.445 58.3068 363.001 60.9186 364.115 63.1193C365.255 65.3201 366.859 67.0171 368.928 68.2102C370.996 69.4034 373.448 70 376.286 70C378.168 70 379.892 69.7348 381.456 69.2045C383.02 68.6742 384.359 67.8788 385.473 66.8182C386.587 65.7576 387.435 64.4583 388.018 62.9205L403.689 63.9545C402.893 67.7197 401.263 71.0076 398.797 73.8182C396.357 76.6023 393.202 78.7765 389.331 80.3409C385.486 81.8788 381.045 82.6477 376.007 82.6477Z" fill="#1990FF"/>
</svg>
